<svg width="101" height="89" viewBox="0 0 101 89" fill="none" xmlns="http://www.w3.org/2000/svg">
<path d="M78.8264 69.7599C78.0806 76.54 75.5543 83.171 71.2209 88.9022C88.9044 78.2662 100.78 58.9552 100.956 36.8592C100.755 51.6567 91.6872 64.3147 78.8264 69.7599V69.7599ZM64.696 72.6157H64.8549L64.8574 72.6132C64.8036 72.6157 64.75 72.6157 64.696 72.6157V72.6157Z" fill="url(#paint0_linear_103_168)"/>
<path d="M100.958 36.358C100.958 36.5243 100.958 36.693 100.956 36.8592C100.755 51.6567 91.6874 64.3148 78.8265 69.7599C74.5297 71.579 69.8098 72.5937 64.8552 72.6157L64.8576 72.6133C70.047 72.5839 74.8818 71.0533 78.9487 68.4322C86.229 63.7426 91.0492 55.5663 91.0492 46.2654C91.0492 31.7686 79.3376 20.0055 64.8576 19.9199V19.9174C64.8576 11.9368 60.1378 5.0564 53.3368 1.9194C56.9097 0.740882 60.7296 0.102722 64.6962 0.102722C84.5563 0.102722 100.687 16.0665 100.956 35.8568C100.958 36.023 100.958 36.1917 100.958 36.358V36.358Z" fill="url(#paint1_radial_103_168)"/>
<path d="M64.8577 19.9199C64.8039 19.9174 64.7501 19.9174 64.6963 19.9174C64.7501 19.9663 64.8039 20.0177 64.8552 20.069C64.8234 24.6926 63.2045 28.9397 60.5169 32.2919C56.1932 29.6267 51.4733 27.8908 46.6361 27.0741C43.5303 26.5509 40.378 26.4042 37.2477 26.634C34.6041 25.3577 32.973 23.3527 32.2124 20.2279C34.0881 16.4528 36.6046 13.0517 39.6199 10.1665C43.4789 6.47696 48.1499 3.62602 53.3368 1.91937C60.1378 5.05638 64.8577 11.9368 64.8577 19.9174V19.9199V19.9199Z" fill="url(#paint2_radial_103_168)"/>
<path d="M37.2453 26.634C34.5968 26.8296 31.9629 27.2917 29.3927 28.0252C30.0334 25.2941 30.9847 22.6828 32.2099 20.228C32.9705 23.3527 34.6017 25.3577 37.2453 26.634Z" fill="url(#paint3_linear_103_168)"/>
<path d="M91.0467 46.2653C91.0467 55.5663 86.2266 63.7426 78.9463 68.4322C74.8794 71.0533 70.0446 72.5839 64.8552 72.6133C65.3859 72.112 65.9043 71.5888 66.4105 71.0484C71.9839 65.0898 75.1533 57.7449 75.9554 50.2141C77.1244 39.3018 73.3289 27.991 64.6938 19.9174C79.2471 19.9174 91.0467 31.7148 91.0467 46.2653V46.2653Z" fill="url(#paint4_linear_103_168)"/>
<path d="M71.6489 62.811C65.3037 71.6093 55.1661 76.0566 45.0807 75.528C39.4455 75.2341 33.8279 73.3849 28.899 69.8738C29.7429 69.7616 30.5903 69.6202 31.4379 69.4542C40.7749 67.6185 48.784 62.8318 54.6801 56.2551C63.2304 46.7296 67.3563 33.442 64.6958 19.9167C78.4623 29.8409 81.576 49.0471 71.6496 62.8127L71.6489 62.811Z" fill="url(#paint5_linear_103_168)"/>
<path d="M45.3081 65.212C33.89 69.7858 21.4822 67.8913 12.1444 61.2633C6.92668 57.5615 2.67025 52.3809 0.0823975 46.0272C0.958627 46.4318 1.85589 46.8108 2.76831 47.1663C12.824 51.0757 23.3995 51.3532 33.039 48.6343C47.0102 44.7027 59.03 34.4831 64.6938 19.9172C71.8501 37.7763 63.1697 58.0576 45.3069 65.2142L45.3081 65.212Z" fill="url(#paint6_linear_103_168)"/>
<defs>
<linearGradient id="paint0_linear_103_168" x1="94.2601" y1="45.6369" x2="69.8115" y2="83.784" gradientUnits="userSpaceOnUse">
<stop stop-color="#623AFF"/>
<stop offset="1" stop-color="#83FFAD"/>
</linearGradient>
<radialGradient id="paint1_radial_103_168" cx="0" cy="0" r="1" gradientUnits="userSpaceOnUse" gradientTransform="translate(77.1464 22.6657) scale(25.5801 25.5753)">
<stop offset="0.0015" stop-color="#3491CF"/>
<stop offset="0.143" stop-color="#2D80B6"/>
<stop offset="1" stop-color="#0F2F48"/>
</radialGradient>
<radialGradient id="paint2_radial_103_168" cx="0" cy="0" r="1" gradientUnits="userSpaceOnUse" gradientTransform="translate(48.5338 17.1056) scale(15.766 15.763)">
<stop offset="0.0131" stop-color="white"/>
<stop offset="0.5652" stop-color="#CDDAE4"/>
<stop offset="0.9888" stop-color="#9CB6CA"/>
</radialGradient>
<linearGradient id="paint3_linear_103_168" x1="29.3951" y1="24.1254" x2="37.2477" y2="24.1254" gradientUnits="userSpaceOnUse">
<stop offset="0.0015" stop-color="#3491CF"/>
<stop offset="0.0107" stop-color="#328FCC"/>
<stop offset="0.1156" stop-color="#2176AE"/>
<stop offset="0.2298" stop-color="#166398"/>
<stop offset="0.3568" stop-color="#0D5688"/>
<stop offset="0.5022" stop-color="#074E7E"/>
<stop offset="0.682" stop-color="#034978"/>
<stop offset="1" stop-color="#014777"/>
</linearGradient>
<linearGradient id="paint4_linear_103_168" x1="56.3399" y1="-4.66834" x2="79.2491" y2="60.9286" gradientUnits="userSpaceOnUse">
<stop stop-color="#3491CF"/>
<stop offset="1" stop-color="#014777"/>
</linearGradient>
<linearGradient id="paint5_linear_103_168" x1="74.9063" y1="32.9398" x2="41.4105" y2="75.0009" gradientUnits="userSpaceOnUse">
<stop stop-color="#3491CF"/>
<stop offset="1" stop-color="#014777"/>
</linearGradient>
<linearGradient id="paint6_linear_103_168" x1="85.9013" y1="7.61391" x2="29.1709" y2="51.4764" gradientUnits="userSpaceOnUse">
<stop stop-color="#3491CF"/>
<stop offset="1" stop-color="#014777"/>
</linearGradient>
</defs>
</svg>
